HIERARCHY
ROOT pelvis
{
  OFFSET 0 100 0
  CHANNELS 6 Xposition Yposition Zposition Zrotation Xrotation Yrotation
  JOINT pelvis_right_femur
  {
    OFFSET -10.78128 -3.44521 -0.5502486
    CHANNELS 3 Zrotation Xrotation Yrotation
    JOINT right_femur_tibia
    {
      OFFSET -0.8047443 -44.0398 -0.1307829
      CHANNELS 3 Zrotation Xrotation Yrotation
      JOINT right_tibia_foot
      {
        OFFSET 3.006224 -47.83518 -5
        CHANNELS 3 Zrotation Xrotation Yrotation
        End Site
        {
          OFFSET 0 -5 15
        }
      }
    }
  }
  JOINT pelvis_left_femur
  {
    OFFSET 10.78128 -3.44521 -0.5502486
    CHANNELS 3 Zrotation Xrotation Yrotation
    JOINT left_femur_tibia
    {
      OFFSET 0.8047443 -44.0398 -0.1307829
      CHANNELS 3 Zrotation Xrotation Yrotation
      JOINT left_tibia_foot
      {
        OFFSET -4.370144 -48.10324 -4.275266
        CHANNELS 3 Zrotation Xrotation Yrotation
        End Site
        {
          OFFSET 0 -5 15
        }
      }
    }
  }
  JOINT pelvis_spine1
  {
    OFFSET 0 6.468898 -3.129235
    CHANNELS 3 Zrotation Xrotation Yrotation
    JOINT spine1
    {
      OFFSET 0 23.15396 4.99043
      CHANNELS 3 Zrotation Xrotation Yrotation
      JOINT spine2
      {
        OFFSET 0 20.79997 -5.064912
        CHANNELS 3 Zrotation Xrotation Yrotation
        JOINT neck
        {
          OFFSET 0 14.38658 9.616178
          CHANNELS 3 Zrotation Xrotation Yrotation
          End Site
          {
            OFFSET 0 20 0
          }
        }
      }
      JOINT right_manubrium
      {
        OFFSET -5.722621 16.35077 3.967754
        CHANNELS 3 Zrotation Xrotation Yrotation
        JOINT right_clavicle
        {
          OFFSET -13.16364 1.694482 -4.693211
          CHANNELS 3 Zrotation Xrotation Yrotation
          JOINT right_humerus
          {
            OFFSET -28.5034 -0.3100689 -2.792744
            CHANNELS 3 Zrotation Xrotation Yrotation
            JOINT right_radius
            {
              OFFSET -25.15693 0.02248979 -1.271978
              CHANNELS 3 Zrotation Xrotation Yrotation
              End Site
              {
                OFFSET -15 0 0
              }
            }
          }
        }
      }
      JOINT left_manubrium
      {
        OFFSET 5.722621 16.35077 3.967754
        CHANNELS 3 Zrotation Xrotation Yrotation
        JOINT left_clavicle
        {
          OFFSET 13.16364 1.694482 -4.693211
          CHANNELS 3 Zrotation Xrotation Yrotation
          JOINT left_humerus
          {
            OFFSET 29.39168 -1.063119 -2.237045
            CHANNELS 3 Zrotation Xrotation Yrotation
            JOINT left_radius
            {
              OFFSET 24.59957 -0.9528479 0.9047498
              CHANNELS 3 Zrotation Xrotation Yrotation
              End Site
              {
                OFFSET 15 -0 -0
              }
            }
          }
        }
      }
    }
  }
}
MOTION
Frames: 13
Frame Time: 0.0416666666667
202.2874 104.1854 3127.68 0.2951801 -8.210055 3.289609 5.819884 -8.95599 5.32559 -0 18.02907 -0 -3.987391 -5.240926 -8.147034 -2.690675 6.559447 -7.07796 -0 56.06794 -0 -7.731528 -7.036746 15.53366 2.085162 2.148691 7.755441 2.61266 9.478429 -8.017363 0.9520494 18.63006 0.1067851 -3.88864 -26.36524 4.541908 -12.72103 -32.97473 9.634931 99.48137 35.42384 -9.494576 -0 0 21.58478 -9.348101 4.205999 11.38126 -3.429846 -20.0035 -2.458629 -78.9028 7.70289 28.67854 0 0 -38.72248 5.328698 9.456185 5.399812
202.2713 105.4474 3133.862 0.5643581 -8.756036 2.460888 5.554227 -3.611772 5.445129 -0 17.16247 -0 -4.229925 -7.009084 -7.261909 -2.392834 -0.2376264 -6.899796 -0 58.86254 -0 -7.347091 -6.157401 16.49466 2.029301 1.896464 7.871778 2.476636 9.812305 -7.815919 1.016747 18.57888 -0.06728672 -3.95834 -26.00876 4.470579 -12.3304 -33.30445 9.637182 98.5458 34.79243 -8.542686 -0 0 22.6045 -9.816476 5.137233 11.87972 -3.52921 -19.81196 -2.600471 -79.63839 8.048675 29.75535 0 0 -37.0663 4.941212 9.546853 6.151487
202.3205 106.4094 3139.714 0.8880967 -8.969928 1.70966 5.139014 1.336252 5.196739 -0 15.34437 -0 -4.13414 -8.512414 -6.100346 -1.86288 -7.057385 -6.333292 -0 57.2912 -0 -7.028776 -6.153054 17.37429 1.963205 1.668768 8.022849 2.345399 10.11885 -7.57807 1.086907 18.51409 -0.3259365 -4.093584 -25.65761 4.359502 -11.96036 -33.78337 9.591422 97.40181 34.18104 -7.234518 -0 0 23.96392 -10.25891 6.120406 12.45314 -3.684244 -19.48064 -2.634077 -80.48071 8.353063 31.10469 0 0 -34.94374 4.550378 9.66976 6.872023
202.4475 106.8387 3145.392 0.9773817 -8.908338 0.9934535 4.952738 5.590333 4.92616 -0 13.50598 -0 -3.764656 -9.979321 -4.956161 -0.800874 -13.20469 -5.26637 -0 51.46977 -0 -6.673625 -6.338594 18.27946 1.885571 1.471843 8.193042 2.224181 10.38469 -7.319277 1.155739 18.43041 -0.641507 -4.275152 -25.31473 4.219246 -11.60039 -34.37483 9.508172 96.10011 33.61924 -5.650007 -0 0 25.58036 -10.64715 7.131729 13.08236 -3.877463 -19.04266 -2.568096 -81.36829 8.605673 32.61554 0 0 -32.5437 4.176719 9.807494 7.54671
202.6836 106.6571 3151.03 0.7279489 -8.514157 0.2484974 5.017074 9.075285 4.663746 -0 12.11547 -0 -3.382788 -11.66158 -3.900302 0.6731648 -18.30417 -3.945232 -0 42.67354 -0 -6.031849 -6.287776 19.03952 1.797093 1.314012 8.36468 2.119469 10.59419 -7.058873 1.216468 18.32869 -0.9814111 -4.48186 -24.9918 4.063719 -11.25326 -35.02743 9.398309 94.7216 33.14063 -3.905746 -0 0 27.3299 -10.95275 8.123968 13.73232 -4.09071 -18.54028 -2.417444 -82.22568 8.802524 34.15317 0 0 -30.08989 3.841593 9.939633 8.154457
203.0545 105.9609 3156.742 0.2998984 -7.723662 -0.519538 5.035955 11.91883 4.316996 -0 11.37804 -0 -3.137583 -13.50299 -2.895547 2.047689 -22.12268 -2.86189 -0 32.97458 -0 -5.128071 -6.005667 19.39028 1.701455 1.202733 8.522339 2.03726 10.73502 -6.815926 1.264211 18.21611 -1.314891 -4.694602 -24.70672 3.907388 -10.93515 -35.68528 9.271717 93.36277 32.77433 -2.134609 -0 0 29.07055 -11.15483 9.035956 14.35812 -4.308331 -18.01796 -2.202617 -82.98191 8.945816 35.58964 0 0 -27.79362 3.562606 10.04929 8.672029
203.5617 104.9589 3162.64 -0.05057624 -6.690538 -1.254753 4.712026 14.332 3.933124 -0 11.6158 -0 -2.918261 -15.01652 -1.987471 2.785021 -24.52774 -2.426282 -0 24.50277 -0 -4.301601 -5.7562 19.33393 1.605091 1.141418 8.655377 1.981371 10.80301 -6.605897 1.296893 18.10395 -1.617263 -4.898003 -24.47791 3.762941 -10.66872 -36.29717 9.137489 92.11803 32.5374 -0.465581 -0 0 30.66778 -11.24613 9.808086 14.91468 -4.517674 -17.5166 -1.948467 -83.58628 9.041631 36.82671 0 0 -25.81712 3.350545 10.12725 9.079453
204.1926 103.8918 3168.837 -0.1574552 -5.752384 -1.907027 3.963263 16.44797 3.638685 -0 13.25617 -0 -2.545263 -15.45159 -1.267918 2.619493 -25.53851 -2.753648 -0 18.68658 -0 -3.895545 -5.810776 19.12377 1.516177 1.129203 8.758055 1.953277 10.80214 -6.439847 1.314847 18.00439 -1.871188 -5.080602 -24.32078 3.640036 -10.47675 -36.82177 9.00407 91.06876 32.43472 0.9888244 -0 0 32.01096 -11.23234 10.39153 15.36309 -4.708273 -17.07003 -1.68066 -84.01212 9.095694 37.80154 0 0 -24.26259 3.210221 10.17227 9.360448
204.9302 102.9851 3175.428 0.009046081 -5.226207 -2.434788 2.912829 18.19891 3.48449 -0 16.67894 -0 -1.989094 -14.11821 -0.7871635 1.594087 -25.29465 -3.688491 -0 15.99606 -0 -3.982012 -6.28933 19.0204 1.443464 1.16435 8.828013 1.953786 10.73907 -6.326004 1.319531 17.92842 -2.066111 -5.235007 -24.249 3.545072 -10.38156 -37.22901 8.878055 90.28186 32.46704 2.137091 -0 0 33.01714 -11.12391 10.74594 15.67053 -4.871456 -16.70292 -1.419813 -84.24851 9.108995 38.47779 0 0 -23.18355 3.144924 10.18847 9.496268
205.7537 102.4305 3182.428 0.3872598 -5.2906 -2.776631 1.786088 19.27245 3.415117 -0 22.12294 -0 -1.389296 -10.71226 -0.5730114 -0.0457718 -23.93913 -4.939592 -0 16.08437 -0 -4.314732 -7.13229 19.14262 1.395196 1.248502 8.864419 1.985086 10.61649 -6.271729 1.31225 17.88511 -2.197145 -5.35822 -24.27802 3.481513 -10.40765 -37.49919 8.762269 89.81231 32.64001 2.90959 -0 0 33.62796 -10.92669 10.83224 15.80731 -5.000699 -16.42962 -1.175943 -84.28904 9.075448 38.83297 0 0 -22.6024 3.161184 10.18203 9.458558
206.6344 102.3691 3189.727 0.8744638 -5.952521 -2.841831 0.8159469 19.12702 3.320277 -0 29.53909 -0 -0.9432277 -5.588966 -0.6709448 -1.951858 -21.52135 -6.199471 -0 17.97353 -0 -4.446714 -8.150542 19.42833 1.378108 1.388591 8.86675 2.051496 10.42962 -6.284217 1.29346 17.88146 -2.263813 -5.451308 -24.42627 3.450396 -10.58223 -37.62145 8.655041 89.70485 32.96716 3.258542 -0 0 33.80592 -10.63798 10.60911 15.74614 -5.091938 -16.25439 -0.9463964 -84.12533 8.982314 38.85018 0 0 -22.52301 3.270615 10.15872 9.208019
207.5351 102.8619 3197.065 1.354525 -7.001732 -2.537993 0.1634175 17.09458 3.105348 -0 38.28656 -0 -0.7957318 0.08699572 -1.135871 -3.732755 -18.01126 -7.224053 -0 20.24169 -0 -3.946133 -9.120992 19.63009 1.396497 1.595443 8.834524 2.158412 10.16715 -6.36942 1.262721 17.92242 -2.268813 -5.51811 -24.71241 3.450765 -10.93103 -37.59236 8.551543 89.99254 33.46567 3.158229 -0 0 33.53339 -10.24985 10.03669 15.46604 -5.143503 -16.17281 -0.7180105 -83.74809 8.812713 38.5172 0 0 -22.93568 3.487822 10.12237 8.701053
208.414 103.8443 3204.108 1.703851 -8.009973 -1.833286 -0.1337754 12.71226 2.754319 -0 46.80574 -0 -1.003107 4.612761 -1.979796 -5.02708 -13.46863 -7.902359 -0 21.43741 -0 -2.710287 -9.951286 19.39858 1.451127 1.87944 8.768114 2.309678 9.816279 -6.52916 1.219242 18.01041 -2.217536 -5.56364 -25.14861 3.479716 -11.4696 -37.41638 8.446595 90.68962 34.14592 2.609495 -0 0 32.8182 -9.758123 9.088649 14.96105 -5.156143 -16.17296 -0.4722238 -83.15567 8.549967 37.83463 0 0 -23.81082 3.824459 10.07429 7.904068
